<svg xmlns="http://www.w3.org/2000/svg" viewBox="0 0 200 60" width="200" height="60">
  <!-- Logo Background (Optional) -->
  <rect width="200" height="60" fill="none"/>
  
  <!-- Viva text - Primary color (Green) -->
  <path d="M30.2,15.9l-5.3,28.2h-7.1l-5.3-28.2h6.5l2.4,18.2l2.5-18.2H30.2z" fill="#4ade80"/>
  <path d="M34.8,15.9h6.1v4.3c1.1-3.1,3.5-4.7,6.4-4.7c0.5,0,1,0,1.6,0.1v6c-0.7-0.2-1.5-0.3-2.3-0.3c-3.4,0-5.5,2.1-5.5,6.3v16.5h-6.2V15.9z" fill="#4ade80"/>
  <path d="M63.5,15.5c6.1,0,10.4,4.3,10.4,10.4v2.4H59.8c0.4,3.2,2.4,4.9,5.1,4.9c2,0,3.7-0.9,4.4-2.6h6.1c-1.2,5-5.5,8.1-10.6,8.1c-6.5,0-11.3-4.6-11.3-11.5C53.4,20.3,57.8,15.5,63.5,15.5z M59.8,23.9h7.9c-0.5-2.7-2.3-4-3.9-4C61.9,19.9,60.2,21.2,59.8,23.9z" fill="#4ade80"/>
  
  <!-- CRM text - Secondary color (blue) -->
  <path d="M89.6,15.5c5.9,0,10.5,3.8,10.5,9.8c0,6-4.6,9.8-10.5,9.8h-5.1v9h-6.2V15.9h11.3V15.5z M89.2,29.5c3.1,0,4.7-1.8,4.7-4.2c0-2.4-1.6-4.1-4.7-4.1h-4.7v8.3H89.2z" fill="#60a5fa"/>
  <path d="M121.2,23.7v20.4h-5.8v-3.7c-1.3,2.6-4.2,4.1-7.5,4.1c-6,0-10.4-4.8-10.4-11.8c0-7,4.4-11.8,10.4-11.8c3.2,0,6.1,1.5,7.4,4.1v-3.7h5.9V23.7z M115.3,32.7c0-3.9-2.3-6.5-5.8-6.5c-3.4,0-5.8,2.7-5.8,6.5c0,3.9,2.3,6.6,5.8,6.6C113,39.3,115.3,36.6,115.3,32.7z" fill="#60a5fa"/>
  <path d="M153.5,33.5h-17.9c0.6,2.8,2.6,4.5,5.4,4.5c2,0,3.9-0.9,4.7-2.4h7.2c-1.5,5.2-6.4,8.9-12,8.9c-7.3,0-12.6-5.3-12.6-12.6s5.3-12.6,12.6-12.6c7.2,0,12.5,5.4,12.5,12.6C153.5,32.4,153.5,33,153.5,33.5z M135.6,28.5h11.1c-0.6-2.8-2.9-4.5-5.5-4.5C138.5,24,136.2,25.7,135.6,28.5z" fill="#60a5fa"/>
  
  <!-- Decorative element (optional) -->
  <path d="M163,15.9h6.2v28.2H163V15.9z" fill="#fbbf24"/>
  <circle cx="166.1" cy="10" r="3" fill="#fbbf24"/>
</svg>