<svg xmlns="http://www.w3.org/2000/svg" viewBox="0 0 80 80" width="80" height="80">
  <!-- Background Circle (Optional) -->
  <circle cx="40" cy="40" r="38" fill="white" stroke="#22c55e" stroke-width="2"/>
  
  <!-- V Letter (Primary - Green) -->
  <path d="M30,25l-8,30h-4L10,25h8l2,15l2-15H30z" fill="#22c55e"/>
  
  <!-- Decorative Elements -->
  <path d="M35,25h6v30h-6V25z" fill="#3b82f6"/>
  <circle cx="38" cy="18" r="3" fill="#f59e0b"/>
  
  <!-- Abstract Lines -->
  <path d="M45,25h15c5,0,10,4,10,10c0,5-5,10-10,10H50v10h-5V25z" fill="none" stroke="#3b82f6" stroke-width="3" stroke-linejoin="round"/>
  <path d="M50,35h8c2,0,3,1,3,3s-1,3-3,3h-8V35z" fill="#3b82f6"/>
</svg>